<?xml version="1.0" encoding="utf-8"?>
<!-- Generator: Adobe Illustrator 24.0.1, SVG Export Plug-In . SVG Version: 6.00 Build 0)  -->
<svg version="1.1"
	 id="Layer_1" xmlns:cc="http://creativecommons.org/ns#" xmlns:dc="http://purl.org/dc/elements/1.1/" xmlns:rdf="http://www.w3.org/1999/02/22-rdf-syntax-ns#" xmlns:svg="http://www.w3.org/2000/svg"
	 xmlns="http://www.w3.org/2000/svg" xmlns:xlink="http://www.w3.org/1999/xlink" x="0px" y="0px" viewBox="0 0 500 145.7"
	 style="enable-background:new 0 0 500 145.7;" xml:space="preserve">
<style type="text/css">
	.st0{filter:url(#Adobe_OpacityMaskFilter);}
	.st1{enable-background:new    ;}
	.st2{clip-path:url(#SVGID_3_);}
	.st3{clip-path:url(#SVGID_8_);}
	.st4{clip-path:url(#SVGID_9_);fill:url(#rect261_2_);}
	.st5{clip-path:url(#SVGID_3_);mask:url(#SVGID_1_);}
	.st6{clip-path:url(#SVGID_11_);}
	.st7{clip-path:url(#SVGID_13_);fill:#BBBDBF;}
	.st8{clip-path:url(#SVGID_15_);}
	.st9{clip-path:url(#SVGID_17_);}
	.st10{clip-path:url(#SVGID_19_);}
	.st11{clip-path:url(#SVGID_21_);}
	.st12{clip-path:url(#SVGID_23_);}
	.st13{clip-path:url(#SVGID_25_);}
	.st14{clip-path:url(#SVGID_27_);fill:#00A3E3;}
	.st15{clip-path:url(#SVGID_29_);}
</style>
<g id="g306" transform="matrix(7.065163,0,0,7.065163,-14.476519,-6.71434)">
	<g>
		<defs>
			<rect id="SVGID_2_" x="-212.6" y="-61.6" width="500" height="145.7"/>
		</defs>
		<clipPath id="SVGID_3_">
			<use xlink:href="#SVGID_2_"  style="overflow:visible;"/>
		</clipPath>
		<defs>
			<filter id="Adobe_OpacityMaskFilter" filterUnits="userSpaceOnUse" x="17" y="0.9" width="39.5" height="19">
				<feColorMatrix  type="matrix" values="1 0 0 0 0  0 1 0 0 0  0 0 1 0 0  0 0 0 1 0"/>
			</filter>
		</defs>
		<mask maskUnits="userSpaceOnUse" x="17" y="0.9" width="39.5" height="19" id="SVGID_1_">
			<g id="g267_1_" class="st0">
				<g id="g265_1_" class="st1">
					<g id="g263_1_">
						<g>
							<defs>
								<rect id="SVGID_4_" x="-212.6" y="-61.6" width="500" height="145.7"/>
							</defs>
							<clipPath id="SVGID_5_" class="st2">
								<use xlink:href="#SVGID_4_"  style="overflow:visible;"/>
							</clipPath>
						</g>
						<g>
							<defs>
								<rect id="SVGID_6_" x="-212.6" y="-61.6" width="500" height="145.7"/>
							</defs>
							<defs>
								<rect id="SVGID_7_" x="-222.1" y="-93" width="519.4" height="212.1"/>
							</defs>
							<clipPath id="SVGID_8_" class="st2">
								<use xlink:href="#SVGID_6_"  style="overflow:visible;"/>
							</clipPath>
							<clipPath id="SVGID_9_" class="st3">
								<use xlink:href="#SVGID_7_"  style="overflow:visible;"/>
							</clipPath>
							
								<linearGradient id="rect261_2_" gradientUnits="userSpaceOnUse" x1="-45.9067" y1="29.0838" x2="-44.9069" y2="29.0838" gradientTransform="matrix(205.5849 0 0 205.5849 9453.541 -5966.0869)">
								<stop  offset="0" style="stop-color:#231F20"/>
								<stop  offset="0.8517" style="stop-color:#F5F5F6"/>
								<stop  offset="1" style="stop-color:#FFFFFF"/>
							</linearGradient>
							<rect id="rect261_1_" x="0.9" y="-1.9" class="st4" width="73.5" height="30"/>
						</g>
					</g>
				</g>
			</g>
		</mask>
		<g id="g288" class="st5">
			<g id="g286">
				<g>
					<defs>
						<rect id="SVGID_10_" x="-102.7" y="-56.6" width="278.8" height="134.1"/>
					</defs>
					<clipPath id="SVGID_11_">
						<use xlink:href="#SVGID_10_"  style="overflow:visible;"/>
					</clipPath>
					<g id="g284" class="st6">
						<g>
							<defs>
								<rect id="SVGID_12_" x="-102.7" y="-56.6" width="278.8" height="134.1"/>
							</defs>
							<clipPath id="SVGID_13_">
								<use xlink:href="#SVGID_12_"  style="overflow:visible;"/>
							</clipPath>
							<path id="path282" class="st7" d="M56.4,8.4c-4.3-4.6-10.8-7.7-18-7.5C21.7,1.4,16.9,15.4,17,19.9c0.9-9,9.3-17.6,21.2-17.5
								c6.8,0.1,13,3.3,16.6,7.6C55,9.2,55.8,8.6,56.4,8.4"/>
						</g>
					</g>
				</g>
			</g>
		</g>
	</g>
	<g>
		<defs>
			<rect id="SVGID_14_" x="-212.6" y="-61.6" width="500" height="145.7"/>
		</defs>
		<clipPath id="SVGID_15_">
			<use xlink:href="#SVGID_14_"  style="overflow:visible;"/>
		</clipPath>
		<path id="path290" class="st8" d="M2.4,21.3C2.2,21.3,2,21.2,2,21V9.9c0-0.2,0.1-0.3,0.3-0.3H6l2.3,0c1.7,0,3.8,1,3.8,3.2
			c0,1.2-0.9,1.9-1.3,2.3c0.7,0.3,1.6,1.3,1.6,2.8c0,1.1-0.4,2-1.2,2.6c-0.7,0.6-1.7,0.9-2.9,0.9H5.5H2.4z M4.1,16.2
			c-0.2,0-0.3,0.1-0.3,0.3v2.7c0,0.2,0.1,0.3,0.3,0.3h4.2c1.6,0,2.2-0.6,2.2-1.7c0-1-0.5-1.6-2.2-1.7H4.1z M8.3,14.5
			c1.1,0,2-0.6,2-1.6c0-0.9-0.8-1.4-2-1.4H4.1c-0.2,0-0.3,0.1-0.3,0.3v2.4c0,0.2,0.1,0.3,0.3,0.3L8.3,14.5L8.3,14.5z"/>
	</g>
	<g>
		<defs>
			<rect id="SVGID_16_" x="-212.6" y="-61.6" width="500" height="145.7"/>
		</defs>
		<clipPath id="SVGID_17_">
			<use xlink:href="#SVGID_16_"  style="overflow:visible;"/>
		</clipPath>
		<path id="path292" class="st9" d="M14.9,16.9c0,1.1,0.2,2.3,1,3.2c0.8,0.9,2,1.5,4.2,1.5h0c2.1,0,3.4-0.6,4.2-1.5
			c0.8-0.9,1-2.1,1-3.2v-7c0-0.2-0.1-0.3-0.3-0.3h-1.1c-0.2,0-0.3,0.1-0.3,0.3v7c0,1.7-0.7,2.9-3.4,2.9c-2.7,0-3.4-1.2-3.4-2.9v-7
			c0-0.2-0.1-0.3-0.3-0.3h-1.1c-0.2,0-0.3,0.1-0.3,0.3V16.9z"/>
	</g>
	<g>
		<defs>
			<rect id="SVGID_18_" x="-212.6" y="-61.6" width="500" height="145.7"/>
		</defs>
		<clipPath id="SVGID_19_">
			<use xlink:href="#SVGID_18_"  style="overflow:visible;"/>
		</clipPath>
		<path id="path294" class="st10" d="M37.3,18.1c0,0.2-0.1,0.2-0.2,0.1l-6.4-8.3c-0.1-0.1-0.3-0.3-0.5-0.3H29
			c-0.2,0-0.3,0.1-0.3,0.3V21c0,0.2,0.1,0.3,0.3,0.3h1.1c0.2,0,0.3-0.1,0.3-0.3v-8.1c0-0.2,0.1-0.2,0.2-0.1l6.4,8.2
			c0.1,0.1,0.3,0.3,0.5,0.3h1.1c0.2,0,0.3-0.1,0.3-0.3V9.9c0-0.2-0.1-0.3-0.3-0.3h-1.1c-0.2,0-0.3,0.1-0.3,0.3L37.3,18.1L37.3,18.1z
			"/>
	</g>
	<g>
		<defs>
			<rect id="SVGID_20_" x="-212.6" y="-61.6" width="500" height="145.7"/>
		</defs>
		<clipPath id="SVGID_21_">
			<use xlink:href="#SVGID_20_"  style="overflow:visible;"/>
		</clipPath>
		<path id="path296" class="st11" d="M57.9,13.9L57.9,13.9h-1.1h0c-0.2,0-0.3,0.1-0.3,0.3V21c0,0.2,0.1,0.3,0.3,0.3h0h1h0
			c0.2,0,0.3-0.1,0.3-0.3v-6.7C58.3,14.1,58.1,13.9,57.9,13.9"/>
	</g>
	<g>
		<defs>
			<rect id="SVGID_22_" x="-212.6" y="-61.6" width="500" height="145.7"/>
		</defs>
		<clipPath id="SVGID_23_">
			<use xlink:href="#SVGID_22_"  style="overflow:visible;"/>
		</clipPath>
		<path id="path298" class="st12" d="M63.4,19.5c-0.2,0-0.3-0.1-0.3-0.3v-2.8c0-0.2,0.1-0.3,0.3-0.3h4.4c0.2,0,0.3-0.1,0.3-0.3v-1.1
			c0-0.2-0.1-0.3-0.3-0.3h-4.4c-0.2,0-0.3-0.1-0.3-0.3v-2.3c0-0.2,0.1-0.3,0.3-0.3h6.8c0.2,0,0.3-0.1,0.3-0.3V9.9
			c0-0.2-0.1-0.3-0.3-0.3h-8.5c-0.2,0-0.3,0.1-0.3,0.3V21c0,0.2,0.1,0.3,0.3,0.3h8.8c0.2,0,0.3-0.1,0.3-0.3v-1.1
			c0-0.2-0.1-0.3-0.3-0.3L63.4,19.5L63.4,19.5z"/>
	</g>
	<g>
		<defs>
			<rect id="SVGID_24_" x="-212.6" y="-61.6" width="500" height="145.7"/>
		</defs>
		<clipPath id="SVGID_25_">
			<use xlink:href="#SVGID_24_"  style="overflow:visible;"/>
		</clipPath>
		<path id="path300" class="st13" d="M48.3,11.1c1.7,0,2.6,0.7,3.2,1.3c0.1,0.1,0.1,0.1,0.1,0.1c0.1,0.1,0.3,0.1,0.5,0l0.8-0.8
			c0.1-0.1,0.1-0.3,0-0.5l-0.1-0.1c-0.8-0.7-2.2-1.8-4.6-1.8c-1.9,0-3.5,0.7-4.6,1.8c-1.1,1.1-1.8,2.6-1.8,4.3c0,2,0.8,3.5,2,4.5
			c1.2,1,2.8,1.6,4.4,1.6c3.4,0,4.9-1.5,5.2-1.9l0-0.1c0,0,0,0,0-0.1c0,0,0,0,0,0c0,0,0,0,0,0V19v-3.6c0-0.2-0.1-0.3-0.3-0.3H49
			c-0.2,0-0.3,0.1-0.3,0.3v1.1c0,0.2,0.1,0.3,0.3,0.3h2.4c0.2,0,0.3,0.1,0.3,0.3v1.2c0,0.2,0,0.4-0.1,0.4l-0.1,0c0,0-0.1,0-0.1,0.1
			c-0.5,0.3-1.4,0.9-3.2,0.9c-2.9,0-4.7-2-4.7-4.3C43.5,13.1,45.3,11.1,48.3,11.1"/>
	</g>
	<g>
		<defs>
			<rect id="SVGID_26_" x="-212.6" y="-61.6" width="500" height="145.7"/>
		</defs>
		<clipPath id="SVGID_27_">
			<use xlink:href="#SVGID_26_"  style="overflow:visible;"/>
		</clipPath>
		<path id="path302" class="st14" d="M57.4,9.5c-0.9,0-1.7,0.7-1.7,1.7s0.7,1.7,1.7,1.7c0.9,0,1.7-0.7,1.7-1.7S58.3,9.5,57.4,9.5"/>
	</g>
	<g>
		<defs>
			<rect id="SVGID_28_" x="-212.6" y="-61.6" width="500" height="145.7"/>
		</defs>
		<clipPath id="SVGID_29_">
			<use xlink:href="#SVGID_28_"  style="overflow:visible;"/>
		</clipPath>
		<path id="path304" class="st15" d="M72.2,10.2c0.1,0,0.2,0,0.2,0c0.1,0,0.1,0.1,0.1,0.2c0,0.1,0,0.1-0.1,0.1c0,0-0.1,0-0.1,0
			c0.1,0,0.1,0,0.1,0.1c0,0,0,0.1,0,0.1v0.1c0,0,0,0,0,0.1c0,0,0,0,0,0l0,0h-0.1c0,0,0,0,0,0c0,0,0,0,0,0l0,0v-0.1
			c0-0.1,0-0.1-0.1-0.2c0,0-0.1,0-0.1,0H72v0.3h-0.1v-0.7L72.2,10.2L72.2,10.2z M72.3,10.3c0,0-0.1,0-0.1,0H72v0.3h0.1
			c0.1,0,0.1,0,0.1,0c0,0,0.1-0.1,0.1-0.1C72.3,10.3,72.3,10.3,72.3,10.3 M72.6,11c-0.1,0.1-0.3,0.2-0.5,0.2c-0.2,0-0.3-0.1-0.5-0.2
			s-0.2-0.3-0.2-0.5c0-0.2,0.1-0.3,0.2-0.5c0.1-0.1,0.3-0.2,0.5-0.2c0.2,0,0.3,0.1,0.5,0.2c0.1,0.1,0.2,0.3,0.2,0.5
			S72.8,10.8,72.6,11 M71.8,10.1c-0.1,0.1-0.2,0.2-0.2,0.4s0.1,0.3,0.2,0.4c0.1,0.1,0.2,0.2,0.4,0.2s0.3-0.1,0.4-0.2
			c0.1-0.1,0.2-0.2,0.2-0.4c0-0.2-0.1-0.3-0.2-0.4s-0.2-0.2-0.4-0.2C72,9.9,71.9,10,71.8,10.1"/>
	</g>
</g>
</svg>
