<svg xmlns="http://www.w3.org/2000/svg" viewBox="0 0 254 82.41"><path class="words" d="m212.83 78.77 4.95-10.92c.97-2.15 1.28-2.62 2.3-2.88v-.73h-5.16v.73c1.7.37 1.89 1.23 1.1 3.06l-1.99 4.74-2.46-5.58c-.52-1.23-.45-1.94 1.36-2.15v-.81h-6.89v.81c.81.21 1.13.55 1.83 2.02l4.37 9.43-.73 1.57c-.42.92-.81 1.6-1.26 1.99-.31-1.07-.92-1.65-1.86-1.65-.94 0-1.75.63-1.75 1.86s1 2.15 2.17 2.15c1.69 0 2.74-.84 4.02-3.64m-6.99-3.3-.39-.84c-.71.31-1.34.47-1.89.47-1.23 0-1.55-.63-1.55-1.49v-7.88h3.33v-1.49h-3.33V61.8h-.47l-4.71 3.09v.84h1.91v8.56c0 1.7.97 2.62 2.88 2.62 1.5 0 2.96-.5 4.22-1.44m-9.95.37c-1.62-.24-1.86-.58-1.86-2.02V63.79h-1.28l-3.85 2.51v.58h1.86v6.94c0 1.44-.26 1.78-1.86 2.02v.81h6.99v-.81zm-3.72-14.02c1.1 0 1.99-.89 1.99-2.02 0-1-.76-1.81-1.78-1.81-1.15 0-2.02.89-2.02 1.99 0 1.03.76 1.84 1.81 1.84m-4.58 10.98c0-2.44-2.02-3.2-3.9-3.8-1.86-.6-3.14-1-3.14-2.36 0-.73.55-1.41 1.62-1.41 1.34 0 2.51.81 3.93 2.41l.68-.31-1-3.25h-.42l-.47.39c-.73-.31-1.57-.5-2.46-.5-2.78 0-4.58 1.6-4.58 4.01 0 2.44 2.02 3.14 3.9 3.77 1.86.63 3.14 1 3.14 2.38 0 .86-.65 1.52-1.91 1.52-1.75 0-3.09-1.15-4.69-3.2l-.71.26 1.02 4.09h.45l.76-.55c.86.42 1.83.65 2.91.65 2.67.01 4.87-1.56 4.87-4.1m-13.65 3.04c-1.7-.26-1.94-.63-1.94-2.25V68.2c.52-.94 1.02-1.62 1.55-2.1 0 1.02.71 1.68 1.6 1.68.89 0 1.75-.71 1.75-2.07 0-1.15-.65-1.86-1.81-1.86-1.28 0-2.28 1.07-3.22 2.59v-2.65h-1.15l-3.8 2.49v.58h1.81v6.97c0 1.44-.24 1.81-1.73 2.02v.81h6.94v-.82zm-16.39-7.13c0-2.12.89-3.38 2.62-3.38 1.2 0 1.96.86 2.28 2.57l-4.87 1.68c-.03-.29-.03-.58-.03-.87m8.19 5.58-.71-.55c-.71.81-1.78 1.36-3.01 1.36-2.41 0-3.77-1.83-4.27-4.22l7.86-2.62c-.16-2.78-2.2-4.29-4.79-4.29-3.64 0-6.31 2.93-6.31 6.57 0 3.61 2.3 6.36 6.36 6.36 2.49.01 3.98-1.09 4.87-2.61m-13.72-6.44c.97-2.15 1.28-2.62 2.3-2.88v-.73h-5.16v.73c1.7.37 1.89 1.23 1.1 3.06l-1.99 4.74-2.46-5.58c-.52-1.23-.45-1.94 1.36-2.15v-.81h-6.89v.81c.81.21 1.15.55 1.83 2.02l4.48 9.72h1.36l4.07-8.93zm-11.97 7.99c-1.62-.24-1.86-.58-1.86-2.02V63.79h-1.28l-3.85 2.51v.58h1.86v6.94c0 1.44-.26 1.78-1.86 2.02v.81h6.99v-.81zm-3.72-14.02c1.1 0 1.99-.89 1.99-2.02 0-1-.76-1.81-1.78-1.81-1.15 0-2.02.89-2.02 1.99.01 1.03.77 1.84 1.81 1.84m-13.22 14.02c-1.49-.21-1.73-.58-1.73-2.02v-6.05c1.31-1.18 2.38-1.75 3.33-1.75 1.28 0 1.65.65 1.65 1.83v5.97c0 1.44-.24 1.81-1.73 2.02v.81h6.73v-.81c-1.49-.21-1.73-.58-1.73-2.02v-6.26c0-2.1-.89-3.59-3.54-3.59-1.62 0-3.22 1-4.79 2.33v-2.51h-1.2l-3.8 2.49v.58h1.81v6.97c0 1.44-.24 1.81-1.73 2.02v.81h6.73v-.82zm-28.55-15.4v7.86c0 5.08 2.65 8.62 9.32 8.62s9.32-3.54 9.32-8.51V62.1c0-3.06.86-3.85 2.36-4.27v-.81h-6.34v.81c1.49.42 2.36 1.2 2.36 4.27v6.31c0 4.43-2.33 6.47-6.73 6.47-4.37 0-6.73-2.04-6.73-6.47v-7.96c0-1.99.58-2.33 2.23-2.57v-.86h-7.96v.86c1.65.23 2.17.57 2.17 2.56M245.75 47.46c-1.49-.21-1.73-.58-1.73-2.02V39.4c1.31-1.18 2.38-1.75 3.33-1.75 1.28 0 1.65.65 1.65 1.83v5.97c0 1.44-.24 1.81-1.73 2.02v.81H254v-.81c-1.49-.21-1.73-.58-1.73-2.02v-6.26c0-2.1-.89-3.59-3.54-3.59-1.62 0-3.22 1-4.79 2.33v-2.51h-1.2l-3.8 2.49v.58h1.81v6.97c0 1.44-.24 1.81-1.73 2.02v.81h6.73v-.83zm-10.42 0c-1.7-.26-1.94-.63-1.94-2.25v-5.39c.52-.94 1.02-1.62 1.55-2.1 0 1.02.71 1.68 1.6 1.68.89 0 1.75-.71 1.75-2.07 0-1.15-.65-1.86-1.81-1.86-1.28 0-2.28 1.07-3.22 2.59v-2.65h-1.15l-3.8 2.49v.58h1.81v6.97c0 1.44-.24 1.81-1.73 2.02v.81h6.94v-.82zm-16.4-7.12c0-2.12.89-3.38 2.62-3.38 1.2 0 1.96.86 2.28 2.57l-4.87 1.68c-.03-.29-.03-.58-.03-.87m8.2 5.58-.71-.55c-.71.81-1.78 1.36-3.01 1.36-2.41 0-3.77-1.83-4.27-4.22L227 39.9c-.16-2.78-2.2-4.29-4.79-4.29-3.64 0-6.31 2.93-6.31 6.57 0 3.61 2.3 6.36 6.36 6.36 2.49 0 3.98-1.1 4.87-2.62m-12.1 1.18-.39-.84c-.71.31-1.34.47-1.89.47-1.23 0-1.55-.63-1.55-1.49v-7.88h3.33v-1.49h-3.33v-2.44h-.47l-4.71 3.09v.84h1.91v8.56c0 1.7.97 2.62 2.88 2.62 1.5 0 2.96-.5 4.22-1.44m-9.9-2.67c0-2.44-2.02-3.2-3.9-3.8-1.86-.6-3.14-1-3.14-2.36 0-.73.55-1.41 1.62-1.41 1.34 0 2.51.81 3.93 2.41l.68-.31-1-3.25h-.42l-.47.39c-.73-.31-1.57-.5-2.46-.5-2.78 0-4.58 1.6-4.58 4.01 0 2.44 2.02 3.14 3.9 3.77 1.86.63 3.14 1 3.14 2.38 0 .86-.65 1.52-1.91 1.52-1.75 0-3.09-1.15-4.69-3.2l-.71.26 1.02 4.09h.45l.76-.55c.86.42 1.83.65 2.91.65 2.67.01 4.87-1.56 4.87-4.1m-20.16.49c0-1.34.6-1.96 3.67-2.8v3.8c-.73.58-1.39.84-2.04.84-1.03 0-1.63-.55-1.63-1.84m5.76 3.51c1.13 0 2.33-.52 3.12-1.07l-.24-.73c-1.28.24-1.75.05-1.75-.81v-6.99c0-2.1-.92-3.22-3.88-3.22-3.33 0-5.76 1.78-5.76 3.46 0 .81.55 1.49 1.49 1.49 1.07 0 1.6-.71 1.75-1.41.16-.81-.1-1.41-.5-1.75.65-.31 1.31-.47 1.99-.47 1.13 0 1.68.39 1.68 1.41v2.62c-4.69 1.15-6.84 2.17-6.84 4.66 0 1.91 1.23 2.93 3.17 2.93 1.23 0 2.65-.52 3.85-1.47.19.86.79 1.35 1.92 1.35m-18.57-8.09c0-2.12.89-3.38 2.62-3.38 1.2 0 1.96.86 2.28 2.57l-4.87 1.68c-.03-.29-.03-.58-.03-.87m8.2 5.58-.71-.55c-.71.81-1.78 1.36-3.01 1.36-2.41 0-3.77-1.83-4.27-4.22l7.86-2.62c-.16-2.78-2.2-4.29-4.79-4.29-3.64 0-6.31 2.93-6.31 6.57 0 3.61 2.3 6.36 6.36 6.36 2.49.01 3.98-1.09 4.87-2.61m-20.85 1.54c-1.49-.21-1.73-.58-1.73-2.02v-6.08c1.26-1.15 2.23-1.73 3.33-1.73 1.28 0 1.65.65 1.65 1.83v5.97c0 1.44-.24 1.81-1.73 2.02v.81h6.73v-.81c-1.49-.21-1.73-.58-1.73-2.02v-6.26c0-2.1-.89-3.59-3.54-3.59-1.6 0-3.17.94-4.71 2.25V27.48h-.97l-4.22 2.75v.58h1.91v14.64c0 1.44-.24 1.81-1.73 2.02v.81h6.73v-.82zM152 47.1l-.39-.84c-.71.31-1.34.47-1.89.47-1.23 0-1.55-.63-1.55-1.49v-7.88h3.33v-1.49h-3.33v-2.44h-.47l-4.71 3.09v.84h1.91v8.56c0 1.7.97 2.62 2.88 2.62 1.49 0 2.96-.5 4.22-1.44m-12.84.36c-1.7-.26-1.94-.63-1.94-2.25v-5.39c.52-.94 1.02-1.62 1.55-2.1 0 1.02.71 1.68 1.6 1.68.89 0 1.75-.71 1.75-2.07 0-1.15-.65-1.86-1.81-1.86-1.28 0-2.28 1.07-3.22 2.59v-2.65h-1.15l-3.8 2.49v.58h1.81v6.97c0 1.44-.24 1.81-1.73 2.02v.81h6.94v-.82zm-18.91-6.73c0-2.36 1.02-3.85 3.17-3.85 2.78 0 3.59 3.4 3.59 6.52 0 2.36-1.02 3.85-3.17 3.85-2.77 0-3.59-3.4-3.59-6.52m10.04 1.18c0-3.43-2.3-6.31-6.52-6.31-4.24 0-6.78 3.06-6.78 6.63 0 3.43 2.3 6.31 6.52 6.31 4.23 0 6.78-3.07 6.78-6.63m-17.08-8.2c0-3.06.86-3.85 2.36-4.27v-.81h-6.34v.81c1.49.42 2.36 1.2 2.36 4.27v9.22L98.23 29.45c-.73-.73-1.02-.81-1.49-.81h-4.95v.81c1.07.1 1.7.52 2.93 1.7.39.37.76.81.76 1.55v10.5c0 3.06-.86 3.85-2.36 4.27v.81h6.34v-.81c-1.49-.42-2.36-1.2-2.36-4.27v-9.9l15.03 15.11h1.07v-14.7z"></path><g><path d="M39.67 0C17.76 0 0 17.76 0 39.67s17.76 39.67 39.67 39.67 39.67-17.76 39.67-39.67S61.57 0 39.67 0zm27.32 66.99c-7.3 7.3-17 11.32-27.32 11.32s-20.02-4.02-27.32-11.32-11.32-17-11.32-27.32 4.02-20.02 11.32-27.32c7.3-7.3 17-11.32 27.32-11.32s20.02 4.02 27.32 11.32c7.3 7.3 11.32 17 11.32 27.32-.01 10.32-4.03 20.02-11.32 27.32z"></path><path d="M39.67 2.41c-20.58 0-37.26 16.68-37.26 37.26s16.68 37.26 37.26 37.26 37.26-16.68 37.26-37.26S60.24 2.41 39.67 2.41zm26.05 63.31c-6.96 6.96-16.21 10.79-26.05 10.79s-19.09-3.83-26.05-10.79c-6.96-6.96-10.8-16.21-10.8-26.05s3.83-19.09 10.79-26.05c6.96-6.96 16.22-10.8 26.06-10.8s19.09 3.83 26.05 10.79c6.96 6.96 10.79 16.21 10.79 26.05 0 9.85-3.83 19.1-10.79 26.06z"></path><path d="M39.67 11.23c-15.68 0-28.44 12.76-28.44 28.44s12.76 28.44 28.44 28.44c15.68 0 28.44-12.76 28.44-28.44S55.35 11.23 39.67 11.23zm0 56.47c-15.48 0-28.03-12.55-28.03-28.03s12.55-28.03 28.03-28.03S67.7 24.19 67.7 39.67 55.15 67.7 39.67 67.7z"></path><path d="M39.67 13.02c-14.7 0-26.65 11.96-26.65 26.65s11.96 26.65 26.65 26.65 26.65-11.96 26.65-26.65-11.96-26.65-26.65-26.65zm3.36 5.82c.26.54.5 1.05.5 1.67 0 .1-.01.2-.02.28 0 .03-.01.06-.02.09-.01.05-.02.11-.04.16-.05.15-.12.28-.22.39-.19.21-.48.32-.85.32-.3 0-.55-.06-.74-.19.02-.05.05-.1.07-.16.02-.04.03-.09.04-.13.01-.02.01-.04.02-.06l.03-.12c.01-.04.01-.08.02-.11 0-.03.01-.07.01-.1.01-.08.01-.16.01-.24-.03-.52-.24-1-.53-1.47.24-.94.73-1.86 1.24-2.52-.08.93.19 1.59.48 2.19zm.68.61c.11-.35.2-.69.2-1 .59.64.86 1.26.86 1.93 0 .11-.01.2-.02.3 0 .03-.01.05-.01.08-.01.08-.02.15-.04.22-.01.03-.02.06-.03.1-.02.05-.03.09-.05.14-.02.04-.03.07-.05.1-.01.02-.03.05-.04.07-.04.07-.09.13-.14.18l-.03.03c-.19.18-.43.27-.74.27-.06 0-.11-.01-.16-.02.11-.11.19-.25.26-.4.05-.1.08-.21.11-.32l.03-.12c.01-.04.01-.09.02-.13.01-.1.02-.21.02-.32.03-.41-.06-.77-.19-1.11zm10.27 34.84c.88 0 1.74-.34 2.31-.91.38-.38.61-.83.67-1.33.1.04.2.1.29.18.01.01.02.01.03.01.01 0 .02-.01.02-.02.19-.57.05-1.12-.44-1.79-.48-.66-1.45-1.06-2.59-1.08h-.08c-1.34 0-2.01.59-2.34 1.08-.46.68-.45 1.49-.25 1.94 0 .01.01.02.03.02.01 0 .02 0 .03-.01.1-.12.25-.26.4-.35.74.63 1.89.72 2.77.59.45-.07.79-.24.95-.49.11-.17.13-.37.07-.59-.13-.46-.91-.62-1.41-.53-.47.08-.87.26-1.55.95-.02.02-.05.03-.07.02-.02-.01-.02-.02-.02-.04-.03-.42-.01-.94 0-1.19.23-.35.9-.72 1.59-.72h.02c.58.01 1.06.12 1.3.31.17.14.4.61.55.98.22.58.18.93-.17 1.42-.32.44-1.14.92-2.21.92-1.01 0-1.74-.22-2.42-.73-.43-.5-.47-.98-.22-2.84.31-2.29.24-5.07.06-7.04-.18-1.94-.56-4.08-.84-5.35-.11-.5-.2-.9-.21-1.02.01-.57.24-1.09.64-1.49.47-.45 1.12-.68 1.88-.67 1.29.02 2.06.44 2.29 1.24.03.11.04.59.06 1.15.05 1.4.12 3.74.51 6.53.6 4.31 1.31 5.9 1.78 6.95.28.62.46 1.03.51 1.72.04.67-.16 1.24-.61 1.72-.83.87-2.48 1.35-4.52 1.31-.5-.01-.97-.03-1.43-.06.04-.25.08-.5.12-.76.01-.07.02-.18-.03-.22-.05-.04-.16-.01-.23.01-.64.25-1.22.51-1.75.8-1.05-.12-2.01-.27-2.96-.42-1.94-.31-3.77-.59-6.25-.59-3.59 0-6.69.42-9.22.85-.85-.66-1.81-1.03-2.83-1.24.24-.33.4-.71.48-1.16.1-.56.01-1.36-.1-2.48-.18-1.77-.23-3.82.09-6.76.3-2.75.6-4.47.79-5.31.04-.16.07-.29.11-.4 1.33-.15 2.59-.34 3.81-.53 2.02-.31 3.93-.6 5.59-.6 3.11 0 5.46.33 7.54.63 1.25.18 2.34.33 3.42.39.03.14.07.3.12.49.34 1.17.64 3.39.8 5.3.16 1.94.18 4.7-.13 6.95-.32 2.32-.2 2.65.39 3.29.71.76 1.85.94 2.66.96l.2.01zm5.64-24.11c1.62 1.35 2.5 3.09 2.48 4.79a4.711 4.711 0 0 1-.87 2.7c-.22.18-.42.38-.61.58.28-1.58.34-4 0-5.21-.01-.04-.05-.06-.08-.05-.04.01-.06.04-.05.08.17.97.23 2.72-.43 5.6-.22-.8-.56-1.54-.93-2.21-.23-1.29.02-2.48.25-3.57.18-.9.32-1.89.24-2.71zm1.94 13.75c-.02-.03-.06-.03-.09-.01-1.13.77-2.53 2.45-3.39 3.76.4-.82.68-1.79.67-2.86 0-.06 0-.12-.01-.18.14-.21.29-.4.47-.58.36-.36 1.07-.79 1.83-1.23.89-.53 1.89-1.12 2.58-1.77-.19 1.35-.75 4.09-2.39 5.74-.06.02-.12.04-.18.05-.91.26-1.77.51-2.45.84 1.2-1.74 1.89-2.59 2.96-3.66a.09.09 0 0 0 0-.1zm.71-2.32c-.46.31-.95.6-1.42.88-.09.05-.17.1-.26.16-.1.04-.19.08-.3.12.55-1.37 1.14-2.51 1.96-3.78.02-.03.01-.07-.02-.09-.03-.02-.07-.02-.09.01-.62.71-1.34 1.63-2.15 3.61 0-.02-.01-.03-.01-.05.37-1.04.41-2.07.24-3.05.45-.91 1.27-1.52 2.19-2.22.45-.34.93-.88 1.33-1.28.2 2.26.12 4.26-1.47 5.69zm-3.3 2.15-.02.02c-.05.05-.1.11-.15.17.04-1.57-.14-4.2-.7-5.69a.068.068 0 0 0-.08-.04c-.03.01-.06.04-.05.08.28 1.53.37 2.76.39 4.44-.3-.79-.77-1.54-1.4-2.27-.16-1.35-.01-2.64.16-3.91.09-.72.18-1.41.21-2.08 1.4 1.67 4.03 5.73 1.64 9.28zm-.61 1.06c.02 1.5-.58 2.81-1.25 3.7-.1-.3-.2-.63-.3-1.02.14-1.6.15-3.34-.06-4.11-.01-.03-.04-.06-.08-.05-.03 0-.06.03-.06.07.03 1.19 0 2.12-.07 2.95-.17-.81-.35-1.79-.51-2.98-.07-.52-.13-1.02-.19-1.5.16-.6.28-1.18.27-1.75 1.42 1.24 2.24 3.01 2.25 4.69zm-8.54 11.27c-.03-.02-.07-.02-.09 0-.7.71-1.94 2.05-3.06 3.49.32-.72.56-1.57.68-2.59.9-1.05 2.17-1.9 3.79-2.53-.36 2.41-1.29 4.26-2.81 5.61-.52-.03-1.06-.03-1.59.06.5-.67 1.05-1.35 1.58-2.01.56-.7 1.09-1.36 1.51-1.94.02-.03.02-.07-.01-.09zm-4.9 2.61c-.03-.01-.07 0-.09.04-.55 1.29-1.39 2.47-2.57 3.6-.2-3.41 1.66-4.56 3.63-5.88.38-.26.78-.52 1.16-.8-.06 2.44-.77 5.94-4.41 7 1.14-1.46 1.84-2.38 2.32-3.88.01-.03 0-.07-.04-.08zm-2.58-4.31c1.05.07 2.01.2 2.95.34l.19 1.56c-1.14.72-2.27 1.49-2.96 2.72l-.18-4.62zm8.91 1.09c.48.03.98.05 1.51.06h.08c-.58.47-1.23.95-2.01 1.45.17-.47.31-.98.42-1.51zm2.1.05c.71-.02 1.37-.1 1.95-.24-.2.29-.42.56-.66.83-1.05.14-2.01.39-2.87.76.6-.45 1.14-.9 1.58-1.35zm-14.42-1.2c.19-.01.38-.01.58-.01l.08 6.28c0 .04.03.07.07.07.04 0 .07-.03.07-.07l.08-6.29H40.39l-.14 4.44c0 .04.03.07.07.07.04 0 .07-.03.07-.06l.26-4.45c.19 0 .37 0 .55.01l-.47 7.46H38.6l-.47-7.42c.18-.01.35-.02.53-.02l.25 4.57c0 .04.03.07.07.07.04 0 .07-.03.07-.07l-.12-4.58zm-.07 7.78h1.61c.58 0 .69.06.78.11.14.08.18.16.18.37s-.04.29-.18.37c-.08.05-.19.11-.72.11h-1.71c-.53 0-.64-.07-.73-.11-.14-.08-.18-.16-.18-.37s.04-.29.18-.37c.09-.05.19-.11.77-.11zm-4.52-3.58c.39.59 1.48 2.48 2.22 3.99-.02-.01-.03-.01-.05-.02-.69-.71-1.4-1.17-2.1-1.46-1.71-1.79-1.83-4.09-1.82-5.38.41.38.87.73 1.32 1.07 1.72 1.31 3.5 2.49 3.16 5.78-.12-.24-.28-.51-.5-.88-.12-.2-.26-.44-.42-.72-.42-.73-1.2-2.1-1.72-2.47-.03-.02-.06-.02-.09.01-.01.02-.02.06 0 .08zm-5.01.13c.67.74 1.62 1.37 2.74 1.85-.43-.03-.86-.04-1.27-.05-.46-.01-.91-.02-1.33-.07-1.24-.62-2.2-1.54-2.89-2.79 2.21-.28 4.18-.11 6.08 1.21.22.66.52 1.25.9 1.78-1.82-.51-3.2-1.37-4.13-2.03-.03-.02-.07-.02-.09.01-.03.02-.03.06-.01.09zm-9.66-8.98c.42.3.95.82 1.46 1.48-.1.36-.15.72-.12 1.18.01.21.04.42.09.63-.12-.01-.23-.01-.35-.02-.62-.33-1.15-.84-1.67-1.58-.27-.38-.51-.81-.76-1.27-.37-.67-.79-1.41-1.37-2.11.29.05.61.09.93.13 1.36.18 2.91.39 3.93 1.28-.1.24-.19.46-.27.66-.11.26-.2.49-.28.71-.48-.54-.99-.95-1.51-1.22-.03-.02-.07-.01-.09.03-.03.04-.02.08.01.1zm2.78-6c-.04-.01-.07.01-.08.04-.41 1.15-.86 2.75-.72 5.05-2.17-3.45-.08-6.67 1.6-8.47.07.59.21 1.19.35 1.82-.07.49-.15 1.01-.25 1.55-.47 2.45-.92 4-1.31 5.07-.14-1.45 0-3.12.45-4.98.02-.03 0-.07-.04-.08zm.1-3.17c-.63.73-1.1 1.44-1.44 2.11l-.03.03c.28-1.63.54-4.07.35-5.02-.01-.04-.04-.06-.08-.06-.04.01-.06.04-.06.08.09.84-.17 2.88-.59 4.76-.06-.08-.12-.16-.17-.24-.17-.56-.43-1.08-.77-1.55-.16-.67-.06-1.31.22-2.16.16-.49.33-.7.54-1.4.25-.81.55-1.94.73-2.86.04.08.07.16.11.24.83 1.81 1.85 4.02 1.19 6.07zm-2.93-2.16c-.19.58-.31 1.08-.31 1.55-.7-1.61-1.06-3.22-1.2-5.25 0-.04-.03-.06-.07-.06-.03 0-.07.03-.07.06-.21 1.64.22 3.52.73 4.87a7.1 7.1 0 0 0-.88-.59c-1.95-2.86-.52-6.74.3-8.41.18.61.42 1.59.67 2.24.56 1.45 1.15 2.97 1.14 4.8-.1.28-.21.48-.31.79zm.79 6.31c-.76-1.45-2.23-3.68-3.36-4.61-.03-.02-.07-.02-.09 0-.03.03-.03.07 0 .09 1.1 1.32 1.95 2.7 2.97 4.53-.7-.78-1.52-1.31-2.27-1.79-.35-.22-.7-.44-1.02-.67-.75-1.04-1.01-2.18-1.02-3.83 3.47 1.09 4.99 3.08 4.79 6.28zm-2.96-1.44c1.04.67 2.17 1.39 2.89 2.71.03.7.19 1.33.4 1.88l-.01-.01c-.71-.84-1.45-1.71-3.18-3.15-.03-.02-.07-.02-.09 0-.03.03-.03.07 0 .09.22.27.58.66 1 1.12.68.74 1.51 1.64 2.09 2.41-.53-.18-1.1-.3-1.65-.39-.65-.3-1.3-.74-1.84-1.36-1.03-1.17-1.62-2.92-1.49-4.83.46.52 1.22 1.11 1.88 1.53zm4.46 7.01c.45-1.1 1.14-2.76 1.85-6.48.56-2.93.55-5.26.54-6.65 0-.67-.01-1.21.06-1.39.42-1.12 1.72-1.5 2.73-1.3 1.77.36 2.2 1.66 2.24 2.17.02.3-.05.6-.19 1.21-.2.84-.52 2.56-.85 5.3-.36 2.95-.34 5-.18 6.78.1 1.03.17 1.85.08 2.35-.09.48-.29.88-.6 1.19-.49-.07-.98-.11-1.48-.13-.08-.01-.17.02-.2.09-.04.08 0 .17.07.27.08.1.15.21.22.33-.17.02-.35.04-.54.04h-.05c-.9 0-1.88-.45-2.35-1.08-.34-.45-.38-.77-.17-1.39.11-.33.36-.75.56-.93.24-.22.74-.36 1.32-.36.86 0 1.57.34 1.81.66-.02.37-.05.68-.1 1.07 0 .02-.01.03-.02.04-.02.01-.04 0-.06-.02-.48-.43-1.36-.71-1.9-.71h-.03c-.44.01-.82.14-1.01.34-.11.12-.17.27-.16.44.02.41.27.88 1.33.88h.06c1.01-.02 1.9-.29 2.28-.7.15.08.32.19.49.32.01.01.02.01.03.01.01 0 .02-.01.02-.02.17-.47.15-1.23-.3-1.86-.33-.47-1.01-1.02-2.34-1.02h-.09c-1.01.02-1.96.41-2.56 1.06-.81.87-.55 2.47-.07 2.92.01.01.02.01.03.01.01 0 .02-.01.02-.02.05-.11.11-.22.21-.33.58.8 1.56 1.24 2.82 1.24h.1c.33-.01.64-.04.93-.11.06.13.13.26.2.4.1.2.21.42.33.64-.6.1-1.11.16-1.5.17-1.94.04-3.95-.98-4.07-3.32-.04-.82.15-1.28.49-2.11zm4.57 3.44c2.11.13 4.32.61 5.77 3.06.04.54.13 1.05.25 1.53-.16-.1-.31-.18-.47-.27-1.8-2.2-2.81-2.87-3.73-3.14a.068.068 0 0 0-.08.04c-.01.03 0 .07.03.09.68.39 1.83 1.2 2.89 2.62-.86-.31-1.73-.44-2.58-.47-.7-.82-1.16-1.71-1.54-2.48-.19-.37-.36-.7-.54-.98zm7.37 2.62.19-1.58c.93-.12 1.91-.22 2.94-.29l-.18 4.57c-.66-1.12-1.71-1.84-2.68-2.51-.09-.06-.18-.13-.27-.19zm3.7-25.27c-.01-.19.09-.34.3-.34.19 0 .29.1.3.33l.15 4.92-.5.03-.25-4.94zm1.76.09c-.01-.35.13-.45.36-.45.24 0 .36.17.34.47l-.06 4.8c-.19 0-.39-.01-.59-.01l-.05-4.81zm1.73 4.85.15-4.95c.01-.22.12-.35.3-.35.21 0 .3.18.29.37L41.53 36c-.16-.02-.32-.03-.49-.04zm.77.05.29-5.14c.02-.44-.1-.7-.59-.7-.43 0-.62.21-.63.69l-.12 5.09c-.17-.01-.35-.01-.53-.02l.09-5.1c0-.2-.05-.4-.17-.53-.12-.12-.29-.15-.49-.15-.19 0-.38.04-.5.16-.12.13-.16.32-.16.52l.09 5.08h-.12c-.13 0-.26 0-.4.01l-.12-5.06c-.01-.48-.18-.67-.6-.67-.17 0-.37.05-.47.16-.12.13-.16.31-.15.52l.29 5.11c-.18.01-.35.03-.53.05l-.41-6.51h6.17l-.41 6.54c-.17-.03-.35-.04-.53-.05zm.87-7c-.22.03-.64.03-1.3.03h-3.43c-.66 0-1.08 0-1.3-.03-.35-.05-.45-.11-.52-.24-.09-.21-.13-.36-.13-.48h7.34c-.01.11-.04.26-.13.46-.08.15-.17.21-.53.26zm-6.77-1.16c-.3 0-.36-.21-.36-.38v-.07c0-.17.13-.4.36-.4h7.56c.21 0 .32.13.32.4v.08c0 .21-.16.38-.36.38h-7.52zm-.49-3.02c.23-.05.47-.06.64-.03l.06.26c.06.38-.02.57-.26.68l-.13.05-.31-.96zm7.73-.48a.18.18 0 0 0-.17.14l-.1.54c-.04.39-.02.81.46 1.05l.37.15c.04.02.07.03.06.13l-.1.29-7.99.01-.11-.3c-.02-.1.02-.12.06-.13l.38-.15c.52-.25.51-.72.46-1.06l-.12-.49c-.02-.08-.08-.13-.16-.13l-1.04-.04c-.32-.01-.36-.07-.39-.17l-.08-.34h9.98l-.08.34c-.03.11-.04.16-.33.17l-1.1-.01zm.76.48-.31.97-.12-.05c-.24-.12-.31-.29-.26-.68l.06-.3c.16-.02.38 0 .63.06zm.36-1.48h-9.21c-1.41 0-1.47-.03-1.61-.12-.1-.06-.16-.14-.16-.39 0-.18.06-.31.17-.38.15-.09.52-.13 2.35-.13h7.71c1.82 0 2.2.03 2.35.13.12.07.17.2.17.38 0 .25-.06.34-.16.39-.14.08-.2.12-1.61.12zm-8.56-3.41a2.17 2.17 0 0 0-.09.96c0 .03.01.06.01.08.01.07.03.13.05.19.02.05.03.09.05.14.07.16.15.3.26.42-.12.09-.29.15-.49.15-.1 0-.26-.02-.41-.09a.81.81 0 0 1-.2-.14c-.01 0-.01-.01-.01-.01a.572.572 0 0 1-.07-.08c-.01-.01-.01-.02-.02-.03-.02-.03-.04-.06-.07-.1 0-.01-.01-.01-.01-.02-.02-.04-.05-.09-.06-.15 0-.01-.01-.02-.01-.04-.01-.04-.03-.09-.04-.14 0-.02-.01-.04-.01-.06-.01-.05-.02-.1-.02-.15 0-.02-.01-.04-.01-.07-.01-.08-.01-.15-.01-.24 0-.76.37-1.68.91-2.31-.12.72.09 1.35.25 1.69zm.88-3.73c.53.29.99.78 1.32 1.37-.07.22-.16.43-.24.64-.2.49-.4 1-.45 1.68-.01.13-.01.26 0 .38v.06c.01.12.02.24.05.35v.02a1.916 1.916 0 0 0 .45.89l.02.02c-.17.07-.36.1-.58.1-.63 0-.99-.47-1.08-.99-.01-.07-.02-.15-.02-.23 0-.46.11-.7.32-1.12l.02-.04c.64-1.37.71-2.37.19-3.13zm4.77 4.42c0 .1-.01.18-.01.27 0 .03-.01.06-.01.09-.01.05-.02.1-.03.14l-.03.09c-.01.04-.03.07-.04.11-.01.03-.02.06-.04.08-.17.31-.47.45-.94.45-.42 0-.71-.16-.89-.49-.03-.05-.05-.11-.07-.17 0-.01-.01-.03-.01-.04-.02-.05-.03-.11-.04-.17-.01-.03-.01-.07-.02-.11-.01-.05-.02-.09-.02-.14-.01-.09-.01-.19-.01-.3 0-.52.18-1.11.35-1.68.11-.36.22-.71.27-1.01.1.14.22.3.35.48.5.68 1.19 1.59 1.19 2.4zm-.35-1.9c-.18-.25-.38-.5-.58-.77-.26-.34-.53-.68-.8-1.06-.02-.03-.05-.04-.08-.03-.03.01-.05.04-.05.07.06.66-.16 1.27-.38 1.87-.19.53-.39 1.08-.39 1.66 0 .1.01.2.02.3 0 .04.01.07.01.11l.03.16c.02.11.05.22.09.32.04.1.08.2.14.29-.28-.05-.5-.16-.68-.3-.29-.23-.44-.55-.52-.89v-.02c-.01-.07-.03-.13-.04-.2-.01-.06-.01-.12-.02-.19v-.04c0-.06-.01-.12-.01-.19 0-.49.17-.96.35-1.46.21-.59.45-1.26.45-2.06 0-.99-.43-1.68-.85-2.11 2.05.79 3.11 2.39 3.52 3.93-.07.2-.14.41-.21.61zm-23.07 7.36 14.41-4.74c.03-.01.05-.05.05-.08-.01-.04-.04-.06-.08-.05l-12.66 2.45c.78-.97 1.62-1.88 2.53-2.73l10.6-1.36c.04 0 .06-.04.06-.07 0-.04-.03-.06-.06-.07l-8.21-.49c.93-.68 1.91-1.3 2.93-1.85l6 .8h.01c.03 0 .06-.02.07-.05a.068.068 0 0 0-.04-.08l-3.96-1.67c.91-.39 1.85-.73 2.81-1.01l2.3 1.45c.01.01.02.01.04.01s.04-.01.05-.02c.02-.02.02-.06 0-.09l-1.23-1.66c1.18-.29 2.4-.5 3.64-.61.58.53.96 1.28.96 1.96 0 .38-.04.7-.11.99-.64-.9-1.52-1.45-2.24-1.57-.03-.01-.06.01-.07.04-.01.03-.01.06.01.08.66.63.89 1.24.78 2.03-.08.6-.29 1.04-.5 1.47-.03.07-.06.13-.09.2-.22-.46-.32-.99.03-1.87.01-.03 0-.06-.02-.08-.02-.02-.06-.02-.08-.01-1.03.62-1.75 2.33-1.75 3.47 0 .54.13.9.39 1.12-.89.02-1.07.07-1.23.17-.22.14-.33.37-.33.67 0 .23.04.52.33.69.18.1.29.14 1.02.16l.14.58c.09.3.32.39.58.42l.41 1.26c-.11.07-.24.21-.19.49 0 .01 0 .02.01.03l.15.43v.01c-.12.14-.19.33-.19.51v.08c0 .34.17.59.44.68-.04.23.05.5.17.77.1.18.23.28.41.35l.43 6.78c-.48.05-.98.11-1.48.18l.32-4.38c0-.04-.02-.07-.06-.07-.04-.01-.07.02-.08.05l-1.21 4.55-.82.12c-.51.08-1.04.16-1.57.23l2.67-7.8c.01-.03 0-.07-.04-.09a.08.08 0 0 0-.09.03l-4.57 7.83v-.08c-.04-.48-.35-1.52-1.48-2.15l5.37-8c.02-.03.01-.07-.01-.09-.03-.02-.07-.02-.09.01l-7.22 7.64c-.97.08-1.95.59-2.33 1.61-.07.19-.09.49-.09.96l-.94.99c-.22-.84-.56-1.66-.9-2.42L32.47 25c.03-.03.03-.07 0-.09-.02-.03-.06-.03-.09-.01l-12.73 9.01c-.17-.49-.35-.96-.53-1.41-.14-.36-.28-.72-.4-1.07l13.16-8.11a.08.08 0 0 0 .03-.09c-.02-.03-.05-.05-.09-.03l-15.79 6.57c.54-1.29 1.18-2.51 1.91-3.68zm-3.24 7.82 2.27-1.4c-.35 1.08-.61 2.36-.51 3.65l-2.35 1.66c.1-1.33.3-2.64.59-3.91zm.17 12.22c-.28-1.09-.5-2.21-.64-3.35l1.05-1.02c-.09 1.29.08 2.43.49 3.42l-.9.95zm4.23 8.81c-.83-1.11-1.57-2.29-2.21-3.54l.93-1.38.15.27c.26.46.5.9.79 1.3.37.52.74.93 1.15 1.26a5.98 5.98 0 0 1-.61-.12c-.07-.02-.18-.02-.23.04-.05.05-.03.15 0 .22.14.36.33.7.56 1.04l-.53.91zm.35-1.81c.55.11 1.16.17 1.74.21.33 1.04 1.12 1.97 2.39 2.42l-.26.03c-.34.03-.69.07-1.03.1-1.24-.67-2.31-1.69-2.84-2.76zm2.58 3.09c.4-.03.79-.07 1.18-.11.44-.05.89-.09 1.33-.12.27.04.54.06.84.06h.12c.25 0 .54-.03.86-.07.33.02.67.07.99.13.2.34.43.68.7 1.02-.43.01-.85.04-1.27.09-.56-.11-1.13-.16-1.9-.21-.03 0-.07.02-.07.06 0 .04.02.07.05.08l.08.02c.45.1.83.19 1.19.27 0 .03.01.05.02.08.31.6.67 1.13 1.09 1.6-1.81-.1-3.63-.86-5.21-2.9zm5.29 5.9a25.14 25.14 0 0 1-3.47-2.3l.4-1.16c.9.51 2 .84 3.37.84.1.1.21.2.32.29l-.62 2.33zm4.89 1.85c-1.66-.37-3.02-1.55-3.98-3.44.78.27 1.65.29 2.56.31 1.72.04 3.67.08 5.48 1.96l.01.03c-1.35.14-3.49-.06-5.11-.76a.08.08 0 0 0-.09.03c-.02.03-.01.07.01.09 1.11.96 2.96 1.2 4.51 1.2.15 0 .29 0 .44-.01-.8.49-2.25.94-3.83.59zm5.82.68c-.26.09-1.16.4-1.62.52-.53.14-.79.07-.86-.13-.09-.23-.01-.39.39-.55.24-.09 1.84-.72 2.21-.87a1.73 1.73 0 0 0-.12 1.03zm1.64.93c-.83 0-1.32-.52-1.32-1.39 0-.26.07-.51.2-.72.43-.07 1.71-.09 2.25 0 .13.22.2.47.2.73-.01.87-.49 1.38-1.33 1.38zm4.11-.54c-.07.2-.33.27-.86.13-.45-.12-1.35-.43-1.62-.52.02-.11.03-.23.03-.35 0-.24-.06-.47-.16-.68l2.21.87c.42.16.49.32.4.55zm-.23-1.77c1.45-.79 3.19-1.23 5.16-1.31.04 0 .06-.03.07-.07 0-.04-.03-.07-.06-.07-1.38-.16-2.99.06-4.55.6.66-.39 1.31-.93 1.86-1.71 1.26-.45 2.55-.26 3.8-.07.57.09 1.3.11 1.88.13-1.61 1.83-4.67 4.24-8.16 2.5zm9.6-1.82-.33-1.08c1.47-.41 2.63-1.2 3.54-2.12l.24.64c-1.07.95-2.23 1.8-3.45 2.56zm-3.31-1.2c-.31-.05-.64-.09-.96-.13 1.46-.96 3.83-1.95 5.94-2.46.04-.01.06-.04.05-.08-.01-.04-.04-.06-.08-.06-1.63.19-3.51.81-5.12 1.65.25-.34.47-.7.67-1.08 1.74-1.29 4.18-1.94 7.08-1.8-1.82 2.85-4.41 4.21-7.58 3.96zM56.9 56c-.59-.01-1.16.01-1.7.06.2-.24.39-.5.56-.76 1.65-.65 2.86-1.45 3.63-2.4.02-.03.02-.07-.01-.09-.03-.02-.07-.03-.09 0-.36.33-.87.69-1.49 1.05.39-.51.56-1.11.52-1.78v-.03c.36-.07.72-.12 1.08-.17.55-.08 1.19-.25 1.73-.39-.7 1.96-1.98 4.01-4.23 4.51zm3.87-1.81-.28-.46c.4-.65.76-1.44 1.06-2.39a.19.19 0 0 0-.05-.19.196.196 0 0 0-.19-.05c-.39.12-.79.2-1.21.27.7-.42 1.31-.95 1.81-1.53l.76 1.11c-.55 1.13-1.19 2.21-1.9 3.24zm-2.07-2.61c-.14.02-.29.05-.43.08-.06-.39-.18-.72-.33-1.06 1.04-.58 2.27-1.44 2.85-2.1a.09.09 0 0 0 0-.1c-.03-.03-.07-.03-.1 0-.65.63-1.56 1.2-2.92 1.82-.14-.31-.3-.67-.48-1.14.33-.37.75-.68 1.32-.97.68-.35 1.55-.65 2.51-.92.68-.19 1.5-.46 2.17-.71-.34 1.72-1.99 4.2-4.59 5.1zm5.86-5.84-1.36-1.41c.38-.97.64-2.03.79-3.09l1.16 1.09c-.12 1.17-.32 2.3-.59 3.41zm.62-8.37-1.14-.77c-.02-.3-.05-.61-.09-.93-.01-.07-.02-.19-.09-.21-.07-.02-.12.01-.17.06-.16.18-.32.35-.49.51l-.76-.51c.02-.18.03-.36.04-.55.01-.86-.18-1.97-.94-3.15l3.03 1.78c.29 1.23.5 2.48.61 3.77zM47.01 21.74l14.61 4.71a25.91 25.91 0 0 1 1.67 3.28l-15.78-6.32a.08.08 0 0 0-.09.03c-.02.03 0 .07.03.09l11.84 6.96c.05.73-.12 1.5-.29 2.31-.02.11-.05.23-.07.35l-11.78-7.94c-.03-.02-.07-.01-.09.01-.02.03-.02.07.01.09l9.91 9.32c-.03.6-.11 1.22-.19 1.87-.04.34-.09.68-.13 1.03l-1.17-1.21c-.01-.33-.01-.5-.03-.61-.15-.79-.87-1.37-2.03-1.53l-7.46-7.73c-.02-.03-.07-.03-.09-.01-.03.02-.03.06-.01.09l5.46 7.92c-.26.12-.49.28-.68.47-.41.39-.66.9-.74 1.47l-4.69-7.66a.08.08 0 0 0-.09-.03c-.03.02-.05.05-.03.09l3.05 7.95c-.5-.06-1.01-.13-1.56-.21-.32-.05-.65-.09-.99-.14l-1.51-4.98c-.01-.03-.04-.06-.08-.05-.03.01-.06.04-.06.07l.45 4.8c-.54-.07-1.1-.13-1.69-.18l.43-6.8c.18-.07.31-.17.42-.37.1-.25.19-.52.15-.76.26-.11.44-.37.44-.67v-.05c0-.23-.06-.41-.18-.54l.14-.4c0-.01.01-.02.01-.03.05-.28-.08-.42-.19-.49l.41-1.25c.29-.02.5-.11.59-.43l.14-.57c.72-.01.82-.05 1-.16.29-.17.33-.46.33-.69 0-.3-.11-.53-.33-.67-.16-.1-.34-.15-1.28-.17.29-.25.42-.69.42-1.34 0-1.05-.55-2.15-1.44-2.87-.02-.02-.05-.02-.08-.01-.02.01-.04.04-.04.07.04.35-.04.7-.17 1.05-.03-.06-.06-.13-.09-.19-.37-.78-.75-1.59-.43-2.81.01-.03 0-.06-.03-.08-.03-.02-.06-.01-.08.01-.44.39-.9.96-1.27 1.62-.56-1.4-1.68-2.67-3.43-3.35.5-.03 1.01-.05 1.52-.05.75 0 1.49.03 2.22.1l-.37 1.24c-.01.03 0 .07.03.08.01.01.02.01.03.01.02 0 .04-.01.05-.02l1.02-1.23c.62.07 1.23.16 1.83.28l-.92 1.32c-.02.03-.02.07.01.09.01.01.03.02.05.02.01 0 .03 0 .04-.01l1.68-1.24c.63.14 1.25.31 1.86.49l-2.06 1.75c-.03.02-.03.06-.01.09.01.02.04.03.06.03.01 0 .02 0 .03-.01l3.29-1.42c.81.3 1.59.63 2.36 1L46 18.56c-.03.01-.05.05-.04.08.01.03.04.05.07.05h.01l6.39-1.25c1.01.58 1.98 1.23 2.9 1.95l-8.44.55c-.04 0-.06.03-.06.07 0 .04.03.07.06.07l10.06.68c.99.9 1.91 1.88 2.74 2.93l-12.64-2.08c-.03-.01-.07.02-.08.05-.01.03.01.07.04.08z"></path><path d="M36.7 41.1c.33-.02.5-.03.83-.04.12-.01.18.05.18.17v.2c0 .12-.06.19-.17.19-.51.03-.76.04-1.27.07-.12.01-.18-.05-.18-.17v-2.19c0-.12.06-.19.17-.19.1-.01.15-.01.25-.01.11-.01.17.05.17.17.01.72.01 1.08.02 1.8zM39.36 41.6h-.24c-.14 0-.19-.04-.24-.17-.33-.89-.5-1.33-.81-2.22-.03-.09.02-.17.11-.17h.29c.13 0 .19.04.23.17.22.63.33.95.56 1.58.22-.63.33-.95.55-1.59.04-.13.1-.17.23-.17h.25c.09 0 .15.08.11.17-.31.89-.47 1.34-.8 2.24-.05.12-.11.16-.24.16zM41.38 41.61c-.13-.01-.2-.01-.33-.02-.08 0-.12-.09-.08-.16.31-.46.46-.68.75-1.14-.26-.44-.39-.66-.64-1.1-.04-.07.01-.15.08-.15.14.01.21.01.34.02.14.01.19.04.26.17.15.26.22.39.37.65l.37-.62c.07-.12.12-.15.26-.14.13.01.19.01.32.02.08 0 .12.09.08.16-.26.41-.39.62-.66 1.04.29.49.44.73.74 1.21.04.07 0 .15-.08.15-.14-.01-.21-.01-.36-.02s-.2-.04-.27-.17c-.18-.31-.27-.46-.44-.77-.18.29-.27.44-.45.73-.06.12-.11.14-.26.14zM31.97 46.7c-.1.01-.15.02-.25.03-.14.02-.2-.01-.26-.14-.38-.84-.57-1.25-.93-2.09-.04-.09.02-.17.11-.19.12-.02.18-.02.3-.04.14-.02.2.01.25.14.25.6.38.89.64 1.49.21-.66.32-.99.52-1.65.04-.14.1-.18.24-.2.11-.01.16-.02.26-.04.09-.01.16.06.12.15-.3.93-.45 1.4-.77 2.33-.03.14-.08.19-.23.21zM34.14 46.43c-.12.01-.19-.05-.19-.17-.01-.87-.02-1.31-.02-2.18 0-.12.06-.19.18-.2.58-.05.86-.07 1.44-.12.12-.01.18.05.19.17 0 .07 0 .11.01.18 0 .12-.06.19-.17.2-.4.03-.6.05-1 .08 0 .18 0 .26.01.44.28-.02.42-.03.7-.06.12-.01.18.05.19.17v.16c0 .12-.06.19-.18.2-.28.02-.42.03-.7.06 0 .2.01.29.01.49.41-.03.61-.05 1.02-.08.12-.01.19.05.19.17 0 .07 0 .11.01.18 0 .12-.06.19-.18.2-.62.04-.92.07-1.51.11zM37.23 46.23c-.11 0-.16.01-.27.01-.12 0-.19-.06-.18-.18 0-.88 0-1.31.01-2.19 0-.12.06-.18.18-.19.33-.01.5-.02.83-.03.54-.02.89.29.9.77.01.3-.14.55-.41.68.2.37.3.55.51.92.04.08-.01.16-.1.16-.13 0-.2.01-.33.01-.15 0-.2-.03-.27-.16-.17-.31-.25-.47-.41-.79-.11 0-.17.01-.29.01v.78c.01.13-.05.2-.17.2zm.56-2.06c-.15 0-.23.01-.38.01v.58c.15 0 .23-.01.39-.01a.28.28 0 0 0 .27-.29c-.01-.18-.13-.29-.28-.29zM39.89 46.18c-.12 0-.18-.06-.18-.18 0-.88.01-1.31.01-2.19 0-.12.06-.18.18-.18h.26c.12 0 .18.06.18.18 0 .88.01 1.31.01 2.19 0 .12-.06.18-.18.18h-.28zM42.1 46.24c-.12-.01-.18-.07-.18-.19.01-.72.02-1.08.03-1.8-.23-.01-.34-.02-.57-.03-.12-.01-.18-.07-.18-.19v-.2c0-.12.06-.18.18-.17.7.03 1.05.05 1.75.08.12.01.18.07.18.19v.2c0 .12-.06.18-.18.17-.23-.01-.34-.02-.57-.03 0 .72-.01 1.08-.01 1.8 0 .12-.06.18-.19.17h-.26zM44.02 46.34c-.11-.01-.16-.01-.27-.02-.1-.01-.15-.09-.11-.18.39-.86.57-1.29.94-2.14.05-.13.11-.16.25-.15.1.01.15.01.26.02.14.01.19.06.24.19.33.92.5 1.38.84 2.3.04.09-.02.17-.12.16-.12-.01-.19-.02-.31-.03-.14-.01-.2-.06-.25-.19-.05-.13-.07-.2-.11-.33-.39-.04-.58-.05-.97-.09l-.13.31c-.06.13-.12.16-.26.15zm1.18-.88c-.11-.34-.17-.51-.28-.85-.13.32-.19.48-.32.79.23.03.35.04.6.06zM33.26 51.11c-.1.01-.15.02-.25.03-.15.01-.21-.02-.27-.14-.39-.85-.58-1.28-.95-2.13-.04-.09.02-.17.12-.18.12-.01.19-.02.31-.03.14-.01.2.02.25.14.26.61.39.91.66 1.51.22-.65.33-.98.54-1.64.04-.14.1-.18.24-.2.11-.01.16-.02.27-.03.1-.01.16.06.13.16-.31.92-.47 1.38-.8 2.31-.04.14-.1.18-.25.2zM35.5 50.91c-.13.01-.19-.05-.2-.17-.02-.87-.02-1.31-.04-2.19 0-.12.06-.19.18-.19.11-.01.16-.01.27-.02.12-.01.19.05.19.17l.05 2.19c0 .12-.06.19-.19.19-.09.01-.15.02-.26.02zM37.53 50.81c-.11 0-.17 0-.28.01-.13 0-.19-.06-.19-.18 0-.88 0-1.31.01-2.19 0-.12.06-.18.19-.19.34-.01.52-.01.86-.02.56-.01.92.3.93.77.01.3-.15.54-.43.67.21.37.31.55.53.92.04.08-.01.16-.1.16-.13 0-.2 0-.34.01-.15 0-.21-.03-.28-.16-.17-.32-.26-.47-.42-.79-.12 0-.18 0-.29.01v.78c0 .14-.07.2-.19.2zm.58-2.05c-.16 0-.24.01-.4.01v.58c.16 0 .24-.01.4-.01.17 0 .28-.12.28-.29 0-.18-.12-.29-.28-.29zM40.63 50.79c-.13 0-.19-.07-.19-.19.01-.72.01-1.08.01-1.81-.24 0-.35-.01-.59-.01-.12 0-.19-.07-.18-.19v-.2c0-.12.07-.18.19-.18.72.01 1.09.02 1.81.03.12 0 .19.07.19.19v.2c0 .12-.06.18-.18.18-.24 0-.35-.01-.59-.01v1.81c0 .12-.07.18-.19.18h-.28zM43.83 50.94c-.1-.01-.15-.01-.25-.02-.15-.01-.21-.05-.26-.19-.34-.91-.5-1.37-.83-2.28-.03-.09.03-.17.12-.16.12.01.18.01.31.02.14.01.2.05.24.19.22.65.34.97.57 1.62.26-.62.38-.92.62-1.54.05-.13.11-.16.25-.16.11.01.16.01.27.02.1.01.16.09.12.18-.35.87-.54 1.3-.92 2.17-.03.12-.09.16-.24.15zM47.73 46.28c.16.02.27-.05.27-.16 0-.09-.05-.15-.15-.23-.1-.07-.39-.28-.49-.35-.26-.19-.4-.43-.38-.7.02-.42.39-.72.87-.67.23.02.47.12.64.28.07.07.07.17 0 .25-.02.02-.09.1-.11.13-.08.09-.16.09-.26.01a.667.667 0 0 0-.3-.14c-.15-.01-.23.06-.24.16 0 .09.04.15.15.23.1.07.39.28.49.35.27.19.4.44.39.69-.02.47-.41.72-.91.67-.35-.03-.61-.19-.8-.38-.09-.09-.09-.18 0-.27.03-.02.1-.1.13-.13.08-.08.16-.07.25.01.17.17.31.24.45.25zM46.42 50.66c.16.01.27-.05.27-.17 0-.09-.05-.15-.15-.23-.1-.07-.38-.28-.48-.35-.26-.19-.39-.43-.37-.7.03-.43.39-.72.87-.68.23.02.46.12.64.28.07.07.07.17 0 .25-.02.03-.09.1-.11.13-.08.09-.16.09-.25.01-.1-.08-.2-.13-.29-.14-.14-.01-.23.06-.24.16-.01.09.03.15.15.23.1.07.38.28.48.35.26.19.39.43.38.69-.02.47-.41.73-.91.68-.34-.03-.61-.18-.79-.37-.09-.09-.09-.18 0-.27.03-.02.1-.1.13-.13.08-.08.16-.08.25 0 .15.18.29.25.42.26zM6.16 43.36c0 .13-.07.2-.2.2h-.29c-.13 0-.2-.07-.2-.2v-1.91l-.29.07c-.12.03-.19-.02-.19-.15v-.22c0-.15.04-.22.19-.26l.24-.08a.99.99 0 0 1 .35-.06h.19c.13 0 .2.07.2.2v2.41zM8.18 43.62c-.7 0-1.1-.39-1.1-.84 0-.29.16-.53.45-.67-.26-.14-.4-.36-.4-.63 0-.42.39-.8 1.05-.8s1.05.37 1.05.8c0 .27-.14.49-.39.63.29.14.45.39.45.67-.01.45-.4.84-1.11.84zm0-1.22c-.28 0-.43.16-.43.33 0 .18.15.33.43.33s.43-.16.43-.33-.15-.33-.43-.33zm-.38-.85c0 .16.13.31.38.31s.38-.15.38-.31-.13-.31-.38-.31-.38.14-.38.31zM70.28 43.57l-.11-.21c-.06-.12-.02-.21.09-.27.39-.19.66-.38.8-.64-.13.1-.3.16-.47.16-.56 0-.92-.38-.92-.92 0-.55.42-.99 1.13-.99.63 0 1.08.42 1.08 1.09 0 .92-.51 1.52-1.32 1.88-.13.05-.22.02-.28-.1zm.05-1.89c0 .23.16.4.43.4.25 0 .43-.18.43-.41 0-.23-.17-.4-.43-.4s-.43.17-.43.41zM73.63 43.62c-.7 0-1.1-.39-1.1-.84 0-.29.16-.53.45-.67-.26-.14-.4-.36-.4-.63 0-.42.39-.8 1.05-.8s1.05.37 1.05.8c0 .27-.14.49-.39.63.29.14.45.39.45.67-.01.45-.41.84-1.11.84zm0-1.22c-.28 0-.43.16-.43.33 0 .18.15.33.43.33s.43-.16.43-.33-.16-.33-.43-.33zm-.38-.85c0 .16.13.31.38.31s.38-.15.38-.31-.13-.31-.38-.31c-.26 0-.38.14-.38.31zM39.15 24.31l-1.79.03c-.05 0-.09.02-.12.06a.19.19 0 0 0-.05.13c0 .02.03.54.12.88.12.45.46.7.98.7s.86-.27.94-.74c.05-.34.1-.84.1-.86 0-.05-.01-.1-.05-.13-.03-.05-.08-.06-.13-.07zm-.26 1c-.05.3-.25.45-.6.45-.36 0-.57-.14-.64-.44-.03-.13-.06-.3-.08-.46.31-.17 1-.22 1.38-.06-.01.17-.04.36-.06.51zM41.97 24.32h-1.81c-.05.01-.1.02-.13.06a.21.21 0 0 0-.05.13l.02.14c.03.36.03.38.09.72.07.47.41.74.92.74h.03c.52-.01.87-.26.98-.72.09-.34.12-.86.12-.89 0-.05-.01-.09-.05-.13a.185.185 0 0 0-.12-.05zm-.29.99c-.08.3-.29.45-.65.46-.34.01-.55-.14-.6-.44-.04-.26-.05-.32-.07-.51.38-.17 1.09-.13 1.4.03-.02.15-.04.32-.08.46zM20.25 62.97l.16-.19c-.37-.31-.77-.66-1.14-1l-.17.18c.17.29.14.64-.44 1.25l-1.07 1.13c-.69.73-1.6.86-2.37.1-.7-.7-.58-1.53.19-2.27l1.33-1.28c.54-.52.66-.5.96-.28l.18-.17c-.46-.47-.93-1.02-1.35-1.52l-.19.16c.19.33.18.45-.37.96l-1.41 1.3c-.87.8-1.17 2.11.04 3.32 1.22 1.22 2.52.92 3.33.05l1.1-1.18c.58-.62.91-.7 1.22-.56zM25.58 66.55l.11-.21c-.45-.24-.89-.48-1.33-.75l-.12.21c.22.25.27.58-.16 1.31l-.94 1.57-.89-4.14c-.07-.34-.13-.42-.22-.49-.22-.16-.71-.52-1.04-.78l-.14.19c.14.14.16.31.23.85.03.15.04.3-.09.48l-1.44 2.06c-.49.69-.77.79-1.11.68l-.15.19c.41.31.83.63 1.26.92l.14-.2c-.21-.27-.24-.54.27-1.28l1.27-1.85 1.1 5.09.29.16 1.9-3.2c.43-.74.73-.88 1.06-.81zM26.72 67.11c.32.23.35.34.05 1.02l-1.15 2.61c-.3.68-.39.74-.77.66l-.1.22c.63.29 1.27.57 1.92.83l.1-.22c-.32-.23-.34-.33-.05-1.02l1.1-2.63c.29-.69.39-.74.77-.66l.09-.22c-.63-.25-1.25-.52-1.86-.8l-.1.21zM33.3 69.33c.38.19.48.45.14.85l-1.98 2.38-.6-3.11c-.07-.38.05-.63.4-.64l.07-.23c-.63-.19-1.33-.41-2.05-.67l-.09.23c.25.2.3.41.45 1.08l.99 4.66.32.08 2.99-3.57c.44-.52.73-.72 1.02-.76l.03-.24c-.54-.08-1.09-.19-1.65-.31l-.04.25zM39.37 74.19c-.29.18-.82.26-1.72.21-.67-.04-.71-.06-.76-.12-.05-.05-.07-.13-.06-.28.03-.49.09-1.21.15-1.86.97.07 1.23.12 1.38.19.24.12.3.25.34.45l.25.01.04-1.5-.25-.01c-.06.19-.13.34-.36.41-.28.08-.6.07-1.36-.01.05-.54.09-.98.12-1.13.02-.14.05-.26.11-.32.07-.06.14-.07.73-.04 1.05.06 1.35.16 1.95.65l.18-.13-.35-.95c-.57 0-1.25-.01-1.93-.06-.82-.05-1.58-.12-2.19-.21l-.04.25c.37.11.43.22.37.96l-.27 2.83c-.07.74-.16.82-.54.87l-.02.24c.64.08 1.69.18 2.38.22.73.04 1.96.08 2.47.07l.34-1.32-.22-.09c-.25.26-.46.5-.74.67zM46.89 73.81c-.54.09-1.03-.67-1.87-1.55.88-.31 1.31-.9 1.22-1.61-.12-.91-.87-1.43-2.44-1.18-.9.15-1.91.21-2.5.25l.01.25c.38.04.47.13.55.87l.27 2.83c.08.74 0 .83-.37.95l.02.24c.48-.03 1.38-.11 2.1-.19l-.02-.24c-.37-.04-.46-.12-.54-.86l-.11-.92c.18-.03.35-.05.54-.08 1.26 1.37 1.81 1.98 2.83 1.83.44-.06.72-.32.86-.66l-.21-.14c-.1.12-.18.19-.34.21zm-2.84-1.75c-.32.06-.63.08-.9.1l-.24-2.07c.21-.03.46-.07.69-.1.93-.12 1.38.23 1.49.9.11.63-.24 1.04-1.04 1.17zM50.14 70.04c-1.1.13-1.72.23-1.93-.4-.11-.33.09-.78.78-1.01.82-.27 1.47-.02 2.17.42l.18-.15-.75-1.11-.13.01c-.04.04-.11.1-.19.13-.39.13-.65 0-1.4.24-1.01.33-1.7 1.19-1.39 2.14.37 1.14 1.49 1.03 2.51.91 1.08-.13 1.67-.24 1.87.38.12.37-.12.86-.83 1.09-1.07.35-1.91.13-2.76-.47l-.18.15.74 1.29.14-.01c.06-.08.16-.15.28-.19.5-.17.88.04 1.9-.3.91-.3 1.79-1.13 1.43-2.22-.35-1.1-1.44-1.01-2.44-.9zM55.26 69.99l-1.29-2.54c-.34-.66-.31-.77 0-1.02l-.11-.21c-.6.32-1.2.62-1.82.9l.1.22c.38-.1.48-.05.81.62l1.24 2.57c.32.67.31.77 0 1.02l.11.22c.63-.29 1.26-.6 1.88-.93l-.11-.22c-.39.09-.48.03-.81-.63zM59.48 67.41l-1.79-2.54c-.22-.32-.2-.4.04-.57.4-.28.98-.34 1.79-.16l.13-.2-1.12-.82c-.52.42-1.06.83-1.81 1.35-.75.52-1.32.87-1.9 1.21l.37 1.32.24-.05c.12-.82.38-1.33.78-1.61.24-.17.33-.15.55.17l1.74 2.57c.42.62.42.72.15 1.01l.14.2c.58-.38 1.16-.77 1.72-1.19l-.14-.2c-.37.16-.46.12-.89-.49zM64.34 63.19l-.86-.83-.25-2.18c-.09-.78-.11-1.14.01-1.41l-.19-.15c-.35.42-.76.9-1.14 1.32l.18.16c.33-.24.6-.08.67.44l.2 1.67-1.76-.26c-.45-.07-.62-.25-.4-.52l-.17-.17c-.48.47-1.1 1.04-1.66 1.5l.15.19c.32-.07.51-.08.96-.02l2.69.36.74.75c.52.53.55.63.34.96l.17.17c.5-.48.99-.98 1.47-1.49l-.17-.17c-.34.22-.45.19-.98-.32zM8.59 24.69c.14-.04.3-.06.5.05l2.21 1.16c.75.39.89.68.84 1.02l.22.1c.22-.46.44-.92.68-1.37l-.21-.11c-.24.24-.57.3-1.31-.1L9.5 24.37l5.02-1.22.18-.27-3.15-1.97c-.72-.45-.83-.73-.73-1.07l-.2-.14c-.29.43-.58.86-.85 1.3l.2.13c.26-.23.52-.26 1.29.21l1.67 1.03-4.2.99c-.34.08-.4.16-.46.25-.12.23-.5.99-.66 1.35l.22.1c.11-.14.26-.23.76-.37zM13.47 19.96c1.1.99 2.78.97 3.9-.27 1.11-1.24.95-2.91-.15-3.9-1.1-.99-2.78-.97-3.9.27-1.12 1.23-.95 2.91.15 3.9zm.18-3.61c.63-.7 1.72-.65 2.82.34 1.05.94 1.2 1.98.56 2.7-.63.7-1.72.65-2.82-.34-1.05-.94-1.21-1.97-.56-2.7zM17.74 13.58l1.78 2.22c.46.59.46.71.21 1.01l.17.19c.45-.39.99-.83 1.56-1.27l-.14-.19c-.34.17-.46.16-.91-.43l-.56-.73c.13-.11.26-.22.4-.33 1.79.59 2.57.9 3.43.3.36-.25.53-.63.51-1l-.25-.04c-.04.15-.09.25-.22.34-.48.34-1.33-.13-2.49-.51.62-.67.73-1.36.3-1.94-.51-.69-1.4-.93-2.89.18-.6.45-1.55 1.22-1.99 1.6l.15.19c.36-.19.48-.18.94.41zm1.12-1.77c.75-.56 1.34-.47 1.75.08.39.53.3 1.04-.33 1.54-.25.2-.5.37-.73.53l-1.27-1.67c.17-.14.37-.32.58-.48zM22.52 10.48c.18-.81.48-1.3.91-1.56.28-.17.37-.15.55.2.5.95 1.33 2.63 1.48 3 .19.45.13.63-.15.84l.11.21c.6-.32 1.33-.67 1.94-.95l-.1-.22c-.34.1-.52.03-.76-.39-.19-.35-1.02-2.03-1.47-3.01-.16-.35-.13-.43.18-.56.46-.18 1.04-.12 1.79.23l.16-.17-.9-1.03c-.72.3-1.44.62-2.15.97-.72.35-1.41.72-2.09 1.11l.27 1.34.23-.01zM28.4 7.51l.86 2.71c.22.71.17.83-.16 1.02l.08.23c.61-.22 1.3-.46 1.92-.64l-.07-.23c-.38.04-.49-.02-.7-.73l-.39-1.33c.74-.26 1.63-.49 2.4-.64l.33 1.35c.18.72.11.83-.24.98l.06.23c.64-.16 1.35-.3 1.99-.41l-.04-.24c-.38 0-.48-.08-.65-.8l-.62-2.78c-.17-.73-.11-.83.24-.98l-.05-.24c-.63.11-1.4.28-2.06.44l.06.23c.38 0 .47.07.65.79l.22.92c-.8.24-1.62.46-2.43.65l-.26-.91c-.21-.71-.16-.82.16-1.01l-.07-.22c-.65.19-1.4.43-2 .65l.08.23c.37-.04.48.02.69.73zM35.78 5.84l.26 2.83c.06.74-.01.85-.37.96l.03.25c.62-.08 1.38-.15 2.2-.2.72-.04 1.38-.07 2.13-.04l.46-1.32-.22-.08c-.25.28-.49.51-.78.68-.27.15-.57.24-1.43.29-.59.03-.67.02-.73-.04-.06-.06-.09-.17-.11-.32-.03-.21-.1-.99-.17-1.81.77-.08 1.1-.08 1.38 0 .23.08.3.22.36.41l.25-.01L39 5.91l-.25.01c-.04.2-.1.33-.34.45-.15.07-.41.12-1.4.18-.04-.43-.07-.85-.09-1.18-.01-.15.01-.23.06-.28.05-.06.09-.07.62-.1 1.16-.07 1.66.02 2.36.54l.18-.15-.46-.92c-.64-.01-1.34.02-2.07.06-.69.04-1.74.13-2.38.21l.02.24c.38.04.47.13.53.87zM42.42 9.51c-.4-.14-.53-.39-.24-.83l.4-.63 1 .12c.35.05.71.1 1.07.17l.24.76c.12.37.02.64-.32.68l-.04.24c.65.11 1.37.26 2.11.43l.06-.24c-.27-.17-.35-.37-.57-1.02l-1.37-4.04c-.09-.28-.13-.34-.3-.36-.46-.06-.9-.12-1.32-.16l-.02.23c.17.04.29.1.41.22.18.19.2.27.1.42l-1.98 3.02c-.37.56-.64.8-.93.87l-.01.24c.55.02 1.1.06 1.67.11l.04-.23zm1.49-3.49.57 1.81c-.27-.03-.54-.06-.82-.1-.27-.04-.52-.08-.79-.12l1.04-1.59zM47.85 10.57c.5.16.67.53 1.61.85.91.3 2.11.15 2.47-.93.37-1.11-.58-1.69-1.47-2.2-.95-.55-1.49-.82-1.29-1.43.11-.33.55-.57 1.25-.34.83.27 1.2.86 1.52 1.63l.24-.02.05-1.34-.12-.07c-.05.01-.14.02-.23-.01-.39-.13-.54-.4-1.29-.64-1.01-.34-2.08-.07-2.39.88-.37 1.1.56 1.69 1.44 2.19.96.54 1.52.82 1.31 1.45-.12.37-.6.62-1.32.38-.99-.33-1.52-.99-1.84-1.97l-.24.01-.17 1.47.11.07c.11-.02.23-.02.36.02zM54.73 13.42c-.28-.22-.33-.4-.13-.85.17-.36 1.05-2.02 1.58-2.95.19-.34.28-.36.56-.18.42.27.71.77.86 1.59l.23.03.31-1.33c-.66-.41-1.35-.8-2.05-1.17-.71-.37-1.41-.72-2.12-1.04l-.93 1 .16.18c.76-.33 1.34-.37 1.79-.18.31.13.34.22.16.56-.48.96-1.36 2.62-1.56 2.96-.25.42-.43.48-.77.37l-.11.22c.61.3 1.32.68 1.91 1.01l.11-.22zM57.38 14.01c-.44.6-.57.63-.91.47l-.14.21c.52.34 1.14.79 1.78 1.3.56.44 1.09.86 1.63 1.37l1.22-.69-.11-.21c-.37.04-.7.06-1.04-.01-.3-.06-.58-.19-1.26-.72-.47-.37-.51-.43-.52-.52-.01-.08.05-.19.13-.31.12-.18.58-.82 1.07-1.47.63.45.88.67 1.04.91.12.21.08.36 0 .54l.2.16.96-1.15-.2-.16c-.16.12-.29.18-.55.11-.16-.04-.38-.18-1.17-.78.26-.35.51-.69.71-.95.09-.12.16-.16.23-.17.08-.01.12.01.53.33.92.72 1.24 1.11 1.42 1.96l.23.01.26-.99c-.48-.43-1.02-.87-1.59-1.32-.54-.42-1.4-1.05-1.93-1.41l-.14.19c.26.29.27.41-.17 1.01l-1.68 2.29zM60.89 18.1l-.17.18c.42.42.9.92 1.38 1.46l.18-.16c-.2-.32-.19-.44.36-.94l.68-.61c.12.12.24.25.36.38-.49 1.8-.75 2.59-.08 3.39.28.34.66.47 1.02.41l.01-.25c-.15-.03-.25-.07-.35-.2-.37-.44.04-1.29.36-2.45.72.57 1.42.63 1.97.16.65-.56.82-1.46-.4-2.86-.49-.57-1.33-1.45-1.74-1.86l-.18.16c.2.33.19.45-.36.96l-2.08 1.94c-.52.5-.65.51-.96.29zm4.38-1.79c.16.16.36.35.53.55.61.71.57 1.3.05 1.75-.49.43-1.02.38-1.56-.21-.22-.23-.41-.47-.59-.69l1.57-1.4zM64.72 22.73l-.2.14c.28.43.56.85.82 1.29l.21-.12c-.08-.33.04-.64.76-1.08l1.96-1.17-1.54 4.93.14.29 3.31-1.68c.76-.38 1.05-.33 1.3-.08l.22-.1c-.21-.47-.44-.95-.68-1.4l-.22.11c.06.34-.05.58-.85 1l-1.74.91 1.32-4.11c.11-.33.07-.43.02-.52-.13-.23-.59-.93-.82-1.26l-.21.12c.07.16.08.34-.07.83-.04.14-.11.29-.3.4l-2.13 1.3c-.71.44-1.04.41-1.3.2z"></path></g></svg>