<?xml version="1.0" standalone="no"?>
<!DOCTYPE svg PUBLIC "-//W3C//DTD SVG 20010904//EN"
 "http://www.w3.org/TR/2001/REC-SVG-20010904/DTD/svg10.dtd">
<svg version="1.0" xmlns="http://www.w3.org/2000/svg"
 width="606.000000pt" height="606.000000pt" viewBox="0 0 606.000000 606.000000"
 preserveAspectRatio="xMidYMid meet">
<metadata>
Created by potrace 1.14, written by Peter Selinger 2001-2017
</metadata>
<g transform="translate(0.000000,606.000000) scale(0.100000,-0.100000)"
fill="#000000" stroke="none">
<path d="M265 6016 c2 -24 13 -76 24 -117 10 -41 22 -112 25 -159 8 -128 15
-170 41 -231 14 -30 29 -89 35 -130 18 -118 50 -208 87 -242 18 -17 44 -49 58
-72 13 -24 32 -45 40 -49 10 -3 14 -2 9 5 -3 6 15 -6 41 -25 25 -20 51 -36 56
-36 12 0 69 -60 69 -73 0 -6 3 -7 7 -4 3 4 25 -11 48 -32 38 -35 135 -81 170
-81 8 0 15 -4 15 -10 0 -5 14 -10 30 -10 17 0 60 -13 95 -30 144 -67 364 -99
433 -63 17 10 32 21 32 26 0 4 5 5 10 2 6 -3 10 -1 10 4 0 6 6 11 13 11 7 0
26 16 42 36 17 20 54 59 83 87 29 28 70 74 90 102 20 27 41 53 47 57 5 4 6 8
1 8 -5 0 -3 8 5 18 22 27 38 58 61 120 11 31 28 68 37 81 8 13 17 33 18 45 7
42 47 86 88 96 83 21 89 24 104 65 8 22 21 46 28 53 7 7 13 19 13 26 0 8 7 19
15 26 9 7 26 34 37 59 22 45 28 76 47 237 6 45 11 86 12 90 5 31 -4 65 -25 87
-14 15 -27 36 -31 47 -6 20 -10 20 -1015 20 l-1008 0 3 -44z"/>
<path d="M2874 6028 c-9 -18 -22 -38 -28 -45 -24 -27 -32 -40 -55 -90 -14 -29
-28 -53 -33 -53 -6 0 -7 -78 -4 -187 5 -162 4 -189 -10 -211 -16 -24 -16 -26
10 -45 31 -22 48 -57 52 -102 6 -75 6 -153 0 -164 -14 -22 4 -51 32 -52 15 0
36 -4 47 -8 11 -4 35 -3 53 3 29 8 36 7 44 -7 16 -30 51 -57 73 -57 25 0 135
-103 135 -126 0 -6 8 -19 18 -30 9 -10 23 -31 31 -46 8 -16 18 -28 23 -28 4 0
8 -4 8 -9 0 -11 55 -76 90 -105 13 -12 39 -35 58 -53 19 -18 64 -47 101 -65
36 -18 68 -36 71 -39 3 -3 27 -9 54 -12 27 -4 55 -12 62 -18 8 -6 14 -8 14 -4
0 4 21 -10 48 -31 26 -22 55 -46 66 -54 10 -8 24 -19 30 -25 31 -26 64 -37
120 -41 l62 -4 -2 27 c-1 16 3 36 7 45 5 9 12 63 15 120 14 261 15 262 32 294
6 12 9 24 6 26 -2 3 11 19 31 37 25 22 46 31 70 31 44 0 71 26 86 84 13 52 28
68 87 86 31 10 44 20 47 37 3 13 7 33 10 46 2 12 13 32 25 44 11 12 20 30 20
40 0 10 9 35 20 55 15 29 18 43 10 63 -18 48 -12 112 26 272 21 88 16 101 -76
199 -16 17 -37 51 -46 75 -19 50 -66 97 -124 125 -22 10 -40 22 -40 27 0 4
-306 7 -680 7 l-679 0 -17 -32z"/>
<path d="M2818 4140 c-20 -4 -43 -11 -50 -17 -7 -6 -40 -20 -73 -32 -33 -12
-70 -29 -82 -37 -13 -8 -23 -12 -23 -9 0 3 -9 1 -21 -5 -11 -7 -33 -14 -47
-16 -15 -3 -43 -12 -62 -21 -53 -23 -88 -38 -168 -68 -40 -15 -78 -32 -85 -38
-24 -23 -77 -48 -87 -42 -6 3 -10 1 -10 -4 0 -6 -21 -21 -46 -33 -26 -12 -49
-29 -51 -39 -3 -9 -12 -20 -21 -23 -25 -8 -88 -46 -77 -46 5 0 -14 -12 -43
-27 -29 -15 -52 -30 -52 -35 0 -16 -87 -109 -172 -185 -25 -23 -50 -52 -53
-65 -11 -33 -42 -77 -85 -118 -30 -30 -83 -118 -84 -143 -1 -4 -7 -11 -14 -16
-8 -5 -13 -11 -13 -15 1 -3 -6 -17 -15 -31 -8 -13 -19 -48 -23 -77 -4 -29 -13
-63 -19 -75 -11 -19 -9 -26 8 -43 17 -17 20 -33 20 -113 0 -69 -4 -98 -16
-116 -11 -15 -15 -34 -11 -58 5 -31 2 -40 -23 -63 -27 -25 -36 -50 -31 -87 1
-7 -5 -13 -14 -13 -8 0 -15 8 -15 17 0 9 -5 31 -12 50 -9 26 -9 43 1 84 8 28
17 77 22 108 4 31 13 82 19 113 10 49 9 62 -6 95 -9 21 -29 49 -43 63 -67 67
-106 131 -98 162 3 10 -5 27 -19 40 -37 35 -91 135 -123 231 -35 105 -52 132
-116 186 -27 24 -75 66 -105 95 -82 77 -197 163 -260 194 -66 33 -193 41 -242
16 -22 -11 -56 -14 -138 -11 -60 2 -113 6 -116 10 -4 4 -11 7 -16 7 -4 0 -8
-522 -8 -1160 l0 -1160 37 -18 c40 -20 78 -31 128 -38 62 -8 99 -15 103 -19 3
-3 21 4 41 14 36 19 101 46 112 46 10 0 119 78 119 86 0 4 9 11 20 14 11 3 20
13 20 21 0 8 4 13 9 11 9 -2 70 60 111 114 25 32 53 60 138 134 35 31 45 35
57 25 8 -7 15 -25 15 -41 0 -16 4 -29 9 -29 5 0 16 -17 24 -39 14 -35 44 -56
71 -52 9 2 55 -45 57 -57 0 -4 2 -37 3 -73 2 -36 6 -71 10 -77 4 -7 1 -12 -6
-12 -8 0 -9 -3 -3 -8 6 -4 11 -26 11 -48 1 -23 10 -54 20 -70 11 -15 20 -42
21 -59 5 -80 14 -147 23 -163 5 -9 23 -47 39 -85 17 -37 37 -74 45 -83 14 -14
21 -35 17 -57 -3 -20 36 -69 115 -142 48 -44 100 -92 116 -107 15 -14 28 -35
28 -45 0 -11 10 -29 23 -40 12 -11 38 -39 57 -62 19 -22 38 -41 43 -41 5 0 21
-8 35 -19 15 -10 40 -21 56 -25 40 -10 101 -55 122 -90 25 -43 24 -132 -3
-192 -12 -27 -32 -76 -45 -109 -12 -33 -31 -73 -40 -90 -10 -17 -18 -33 -18
-37 0 -5 619 -8 1375 -8 799 0 1375 4 1375 9 0 5 -12 12 -27 16 -14 3 -45 19
-67 35 -23 16 -59 31 -81 35 -22 3 -65 10 -95 15 -30 5 -72 12 -92 14 -21 3
-54 14 -75 25 -21 11 -49 23 -63 26 -14 3 -36 13 -49 23 -44 35 -38 152 10
186 23 15 65 76 83 119 7 18 33 55 58 82 25 28 54 66 64 86 11 20 36 68 57
108 20 39 35 71 32 71 -2 0 0 12 6 27 18 47 29 140 39 323 5 96 11 184 14 195
2 11 7 43 10 70 4 28 9 66 13 85 9 53 59 158 98 206 19 23 35 46 35 51 0 4 9
13 19 18 94 49 151 89 151 106 0 10 5 19 10 19 6 0 10 10 10 22 0 12 6 29 14
37 7 9 16 44 19 79 4 35 9 67 12 72 4 6 -28 43 -69 83 -107 104 -156 217 -156
362 0 92 20 168 70 260 22 41 40 83 40 95 0 11 4 20 9 20 17 0 29 111 22 200
-1 20 -46 71 -55 63 -3 -3 -6 0 -6 8 0 8 -22 30 -47 49 -26 19 -76 63 -112 98
-36 34 -68 62 -71 62 -9 0 -130 120 -130 129 0 5 -8 11 -18 13 -11 3 -18 16
-20 37 -1 19 -13 43 -27 57 -14 14 -25 31 -25 39 0 8 -5 15 -11 15 -6 0 -10
10 -9 23 1 12 1 24 0 27 -1 3 -4 25 -6 49 -2 25 -15 68 -30 97 -25 49 -29 52
-63 52 -20 -1 -57 2 -83 6 -25 4 -177 9 -336 11 -270 2 -293 4 -329 23 -150
80 -210 105 -260 107 -34 2 -53 -2 -53 -9 0 -7 -3 -8 -8 -1 -8 12 -42 14 -94
5z m-1584 -1927 c9 -34 0 -71 -29 -117 -16 -25 -35 -46 -42 -46 -14 0 -16 -9
-13 -53 2 -36 -59 -98 -91 -92 -27 5 -60 35 -53 46 3 5 0 9 -6 9 -28 0 -1 49
50 90 80 65 95 81 110 120 7 19 18 41 23 48 14 18 45 15 51 -5z"/>
<path d="M5789 4066 c-2 -2 -24 -6 -49 -9 -66 -8 -84 -15 -158 -63 -196 -126
-237 -163 -258 -232 -9 -31 -21 -61 -25 -67 -12 -17 -49 -146 -49 -172 0 -14
-13 -82 -29 -152 -33 -141 -41 -195 -46 -328 -3 -50 -7 -104 -10 -120 -11 -55
-19 -170 -19 -305 l-1 -137 34 -33 c19 -18 40 -43 49 -56 8 -12 40 -36 71 -52
65 -35 115 -79 190 -170 30 -36 59 -70 65 -75 14 -13 48 -63 64 -95 24 -46 37
-58 102 -89 36 -17 91 -46 123 -65 55 -31 139 -56 194 -56 l23 0 0 1141 0
1141 -32 -3 c-18 -2 -39 -7 -46 -12 -18 -14 -54 -15 -82 -2 -25 12 -102 19
-111 11z"/>
<path d="M5635 829 c-22 -5 -77 -11 -123 -14 -60 -3 -98 -12 -136 -30 -30 -14
-89 -36 -133 -49 -56 -17 -99 -38 -148 -75 -105 -77 -115 -85 -115 -98 0 -6
-4 -13 -8 -15 -16 -7 -60 -74 -70 -108 -36 -122 -51 -180 -57 -220 -9 -62 -32
-127 -61 -177 l-25 -43 651 0 650 0 0 358 0 357 -37 20 c-21 11 -49 27 -63 37
-14 9 -61 22 -105 28 -44 7 -87 15 -95 20 -26 13 -84 17 -125 9z"/>
</g>
</svg>
